<mxfile host="app.diagrams.net" modified="2023-07-22T12:37:08.139Z" agent="Mozilla/5.0 (Windows NT 10.0; Win64; x64) AppleWebKit/537.36 (KHTML, like Gecko) Chrome/114.0.0.0 Safari/537.36" version="21.6.2" etag="jYMDMroz12npj9ytQh1o" type="github">
  <diagram name="第 1 页" id="0zIIDUNp1BU1CJsobL1U">
    <mxGraphModel>
      <root>
        <mxCell id="0" />
        <mxCell id="1" parent="0" />
      </root>
    </mxGraphModel>
  </diagram>
</mxfile>
